# MagicaVoxel @ Ephtracy

# group
o 

# material
mtllib DepositTrack.mtl
usemtl palette

# normals
vn -1 0 0
vn 1 0 0
vn 0 0 1
vn 0 0 -1
vn 0 -1 0
vn 0 1 0

# texcoords
vt 0.982422 0.5
vt 0.994141 0.5

# verts
v -1 0 3
v -1 0 -3
v -1 0.2 3
v -1 0.2 -0.9
v -1 2.5 -0.9
v -1 2.5 -3
v 0.9 0.1 2.9
v 0.9 0.1 -1
v 0.9 0.1 -2.9
v 0.9 0.2 2.9
v 0.9 0.2 -0.9
v 0.9 2.4 -0.9
v 0.9 2.4 -2.9
v -0.9 0.1 2.9
v -0.9 0.1 -1
v -0.9 0.1 -2.9
v -0.9 0.2 2.9
v -0.9 0.2 -0.9
v -0.9 2.4 -0.9
v -0.9 2.4 -2.9
v 1 0 3
v 1 0 -3
v 1 0.2 3
v 1 0.2 -0.9
v 1 2.5 -0.9
v 1 2.5 -3
v -1 0 3
v -1 0.2 3
v 1 0 3
v 1 0.2 3
v -1 0.2 -0.9
v -1 2.5 -0.9
v -0.9 0.2 -0.9
v -0.9 2.4 -0.9
v 0.9 0.2 -0.9
v 0.9 2.4 -0.9
v 1 0.2 -0.9
v 1 2.5 -0.9
v -0.9 0.1 -2.9
v -0.9 2.4 -2.9
v 0.9 0.1 -2.9
v 0.9 2.4 -2.9
v -0.9 0.1 2.9
v -0.9 0.2 2.9
v 0.9 0.1 2.9
v 0.9 0.2 2.9
v -1 0 -3
v -1 2.5 -3
v 1 0 -3
v 1 2.5 -3
v -1 0 3
v 1 0 3
v -0.9 0 2.9
v 0.9 0 2.9
v -0.9 0 -1
v 0.9 0 -1
v -1 0 -3
v 1 0 -3
v -0.9 2.4 -0.9
v 0.9 2.4 -0.9
v -0.9 2.4 -2.9
v 0.9 2.4 -2.9
v -0.9 0.1 2.9
v 0.9 0.1 2.9
v -0.9 0.1 -1
v 0.9 0.1 -1
v -0.9 0.1 -2.9
v 0.9 0.1 -2.9
v -1 0.2 3
v 1 0.2 3
v -0.9 0.2 2.9
v 0.9 0.2 2.9
v -1 0.2 -0.9
v -0.9 0.2 -0.9
v 0.9 0.2 -0.9
v 1 0.2 -0.9
v -1 2.5 -0.9
v 1 2.5 -0.9
v -1 2.5 -3
v 1 2.5 -3

# faces
f 3/2/1 2/2/1 1/2/1
f 4/2/1 2/2/1 3/2/1
f 5/2/1 2/2/1 4/2/1
f 6/2/1 2/2/1 5/2/1
f 10/2/1 8/2/1 7/2/1
f 10/2/1 9/2/1 8/2/1
f 11/2/1 9/2/1 10/2/1
f 12/2/1 9/2/1 11/2/1
f 13/2/1 9/2/1 12/2/1
f 14/2/2 15/2/2 17/2/2
f 15/2/2 16/2/2 17/2/2
f 17/2/2 16/2/2 18/2/2
f 18/2/2 16/2/2 19/2/2
f 19/2/2 16/2/2 20/2/2
f 21/2/2 22/2/2 23/2/2
f 23/2/2 22/2/2 24/2/2
f 24/2/2 22/2/2 25/2/2
f 25/2/2 22/2/2 26/2/2
f 29/2/3 28/2/3 27/2/3
f 30/2/3 28/2/3 29/2/3
f 33/2/3 32/2/3 31/2/3
f 34/2/3 32/2/3 33/2/3
f 36/2/3 32/2/3 34/2/3
f 37/2/3 36/2/3 35/2/3
f 38/2/3 32/2/3 36/2/3
f 38/2/3 36/2/3 37/2/3
f 41/2/3 40/2/3 39/2/3
f 42/2/3 40/2/3 41/2/3
f 43/2/4 44/2/4 45/2/4
f 45/2/4 44/2/4 46/2/4
f 47/2/4 48/2/4 49/2/4
f 49/2/4 48/2/4 50/2/4
f 53/2/5 52/2/5 51/2/5
f 54/2/5 52/2/5 53/2/5
f 55/2/5 53/2/5 51/2/5
f 55/1/5 54/1/5 53/1/5
f 56/2/5 52/2/5 54/2/5
f 56/1/5 54/1/5 55/1/5
f 57/2/5 55/2/5 51/2/5
f 57/2/5 56/2/5 55/2/5
f 58/2/5 52/2/5 56/2/5
f 58/2/5 56/2/5 57/2/5
f 61/2/5 60/2/5 59/2/5
f 62/2/5 60/2/5 61/2/5
f 63/1/6 64/1/6 65/1/6
f 65/1/6 64/1/6 66/1/6
f 65/2/6 66/2/6 67/2/6
f 67/2/6 66/2/6 68/2/6
f 69/2/6 70/2/6 71/2/6
f 71/2/6 70/2/6 72/2/6
f 69/2/6 71/2/6 73/2/6
f 73/2/6 71/2/6 74/2/6
f 72/2/6 70/2/6 75/2/6
f 75/2/6 70/2/6 76/2/6
f 77/2/6 78/2/6 79/2/6
f 79/2/6 78/2/6 80/2/6
