# MagicaVoxel @ Ephtracy

# group
o 

# material
mtllib ResourcePack.mtl
usemtl palette

# normals
vn -1 0 0
vn 1 0 0
vn 0 0 1
vn 0 0 -1
vn 0 -1 0
vn 0 1 0

# texcoords
vt 0.880859 0.5
vt 0.986328 0.5
vt 0.994141 0.5

# verts
v -0.9 0.1 0.9
v -0.9 0.1 -0.9
v -0.9 1.9 0.9
v -0.9 1.9 -0.9
v -0.7 0 1
v -0.7 0 -1
v -0.7 0.1 0.9
v -0.7 0.1 -0.9
v -0.7 1.9 0.9
v -0.7 1.9 -0.9
v -0.7 2 1
v -0.7 2 -1
v 0.6 0 1
v 0.6 0 -1
v 0.6 0.1 0.9
v 0.6 0.1 -0.9
v 0.6 1.9 0.9
v 0.6 1.9 -0.9
v 0.6 2 1
v 0.6 2 -1
v -0.6 0 1
v -0.6 0 -1
v -0.6 0.1 0.9
v -0.6 0.1 -0.9
v -0.6 1.9 0.9
v -0.6 1.9 -0.9
v -0.6 2 1
v -0.6 2 -1
v 0.7 0 1
v 0.7 0 -1
v 0.7 0.1 0.9
v 0.7 0.1 -0.9
v 0.7 1.9 0.9
v 0.7 1.9 -0.9
v 0.7 2 1
v 0.7 2 -1
v 0.9 0.1 0.9
v 0.9 0.1 -0.9
v 0.9 1.9 0.9
v 0.9 1.9 -0.9
v -0.7 0 1
v -0.7 2 1
v -0.6 0 1
v -0.6 2 1
v 0.6 0 1
v 0.6 2 1
v 0.7 0 1
v 0.7 2 1
v -0.9 0.1 0.9
v -0.9 1.9 0.9
v -0.7 0.1 0.9
v -0.7 1.9 0.9
v -0.6 0.1 0.9
v -0.6 1.9 0.9
v -0.2 0.7 0.9
v -0.2 1.3 0.9
v -0.1 0.8 0.9
v -0.1 1.2 0.9
v 0.1 0.8 0.9
v 0.1 1.2 0.9
v 0.2 0.7 0.9
v 0.2 1.3 0.9
v 0.6 0.1 0.9
v 0.6 1.9 0.9
v 0.7 0.1 0.9
v 0.7 1.9 0.9
v 0.9 0.1 0.9
v 0.9 1.9 0.9
v -0.9 0.1 -0.9
v -0.9 1.9 -0.9
v -0.7 0.1 -0.9
v -0.7 1.9 -0.9
v -0.6 0.1 -0.9
v -0.6 1.9 -0.9
v -0.2 0.7 -0.9
v -0.2 1.3 -0.9
v -0.1 0.8 -0.9
v -0.1 1.2 -0.9
v 0.1 0.8 -0.9
v 0.1 1.2 -0.9
v 0.2 0.7 -0.9
v 0.2 1.3 -0.9
v 0.6 0.1 -0.9
v 0.6 1.9 -0.9
v 0.7 0.1 -0.9
v 0.7 1.9 -0.9
v 0.9 0.1 -0.9
v 0.9 1.9 -0.9
v -0.7 0 -1
v -0.7 2 -1
v -0.6 0 -1
v -0.6 2 -1
v 0.6 0 -1
v 0.6 2 -1
v 0.7 0 -1
v 0.7 2 -1
v -0.7 0 1
v -0.6 0 1
v 0.6 0 1
v 0.7 0 1
v -0.7 0 -1
v -0.6 0 -1
v 0.6 0 -1
v 0.7 0 -1
v -0.9 0.1 0.9
v -0.7 0.1 0.9
v -0.6 0.1 0.9
v 0.6 0.1 0.9
v 0.7 0.1 0.9
v 0.9 0.1 0.9
v -0.9 0.1 -0.9
v -0.7 0.1 -0.9
v -0.6 0.1 -0.9
v 0.6 0.1 -0.9
v 0.7 0.1 -0.9
v 0.9 0.1 -0.9
v -0.9 1.9 0.9
v -0.7 1.9 0.9
v -0.6 1.9 0.9
v 0.6 1.9 0.9
v 0.7 1.9 0.9
v 0.9 1.9 0.9
v -0.9 1.9 -0.9
v -0.7 1.9 -0.9
v -0.6 1.9 -0.9
v 0.6 1.9 -0.9
v 0.7 1.9 -0.9
v 0.9 1.9 -0.9
v -0.7 2 1
v -0.6 2 1
v 0.6 2 1
v 0.7 2 1
v -0.7 2 -1
v -0.6 2 -1
v 0.6 2 -1
v 0.7 2 -1

# faces
f 3/3/1 2/3/1 1/3/1
f 4/3/1 2/3/1 3/3/1
f 7/2/1 6/2/1 5/2/1
f 8/2/1 6/2/1 7/2/1
f 9/2/1 7/2/1 5/2/1
f 10/2/1 6/2/1 8/2/1
f 11/2/1 9/2/1 5/2/1
f 11/2/1 10/2/1 9/2/1
f 12/2/1 6/2/1 10/2/1
f 12/2/1 10/2/1 11/2/1
f 15/2/1 14/2/1 13/2/1
f 16/2/1 14/2/1 15/2/1
f 17/2/1 15/2/1 13/2/1
f 18/2/1 14/2/1 16/2/1
f 19/2/1 17/2/1 13/2/1
f 19/2/1 18/2/1 17/2/1
f 20/2/1 14/2/1 18/2/1
f 20/2/1 18/2/1 19/2/1
f 21/2/2 22/2/2 23/2/2
f 23/2/2 22/2/2 24/2/2
f 21/2/2 23/2/2 25/2/2
f 24/2/2 22/2/2 26/2/2
f 21/2/2 25/2/2 27/2/2
f 25/2/2 26/2/2 27/2/2
f 26/2/2 22/2/2 28/2/2
f 27/2/2 26/2/2 28/2/2
f 29/2/2 30/2/2 31/2/2
f 31/2/2 30/2/2 32/2/2
f 29/2/2 31/2/2 33/2/2
f 32/2/2 30/2/2 34/2/2
f 29/2/2 33/2/2 35/2/2
f 33/2/2 34/2/2 35/2/2
f 34/2/2 30/2/2 36/2/2
f 35/2/2 34/2/2 36/2/2
f 37/3/2 38/3/2 39/3/2
f 39/3/2 38/3/2 40/3/2
f 43/2/3 42/2/3 41/2/3
f 44/2/3 42/2/3 43/2/3
f 47/2/3 46/2/3 45/2/3
f 48/2/3 46/2/3 47/2/3
f 51/3/3 50/3/3 49/3/3
f 52/3/3 50/3/3 51/3/3
f 55/3/3 54/3/3 53/3/3
f 56/3/3 54/3/3 55/3/3
f 57/1/3 56/1/3 55/1/3
f 58/1/3 56/1/3 57/1/3
f 59/1/3 57/1/3 55/1/3
f 59/3/3 58/3/3 57/3/3
f 60/1/3 56/1/3 58/1/3
f 60/3/3 58/3/3 59/3/3
f 61/3/3 55/3/3 53/3/3
f 61/1/3 59/1/3 55/1/3
f 61/1/3 60/1/3 59/1/3
f 62/1/3 56/1/3 60/1/3
f 62/1/3 60/1/3 61/1/3
f 62/3/3 54/3/3 56/3/3
f 63/3/3 61/3/3 53/3/3
f 63/3/3 62/3/3 61/3/3
f 64/3/3 54/3/3 62/3/3
f 64/3/3 62/3/3 63/3/3
f 67/3/3 66/3/3 65/3/3
f 68/3/3 66/3/3 67/3/3
f 69/3/4 70/3/4 71/3/4
f 71/3/4 70/3/4 72/3/4
f 73/3/4 74/3/4 75/3/4
f 75/3/4 74/3/4 76/3/4
f 75/1/4 76/1/4 77/1/4
f 77/1/4 76/1/4 78/1/4
f 75/1/4 77/1/4 79/1/4
f 77/3/4 78/3/4 79/3/4
f 78/1/4 76/1/4 80/1/4
f 79/3/4 78/3/4 80/3/4
f 73/3/4 75/3/4 81/3/4
f 75/1/4 79/1/4 81/1/4
f 79/1/4 80/1/4 81/1/4
f 80/1/4 76/1/4 82/1/4
f 81/1/4 80/1/4 82/1/4
f 76/3/4 74/3/4 82/3/4
f 73/3/4 81/3/4 83/3/4
f 81/3/4 82/3/4 83/3/4
f 82/3/4 74/3/4 84/3/4
f 83/3/4 82/3/4 84/3/4
f 85/3/4 86/3/4 87/3/4
f 87/3/4 86/3/4 88/3/4
f 89/2/4 90/2/4 91/2/4
f 91/2/4 90/2/4 92/2/4
f 93/2/4 94/2/4 95/2/4
f 95/2/4 94/2/4 96/2/4
f 101/2/5 98/2/5 97/2/5
f 102/2/5 98/2/5 101/2/5
f 103/2/5 100/2/5 99/2/5
f 104/2/5 100/2/5 103/2/5
f 111/3/5 106/3/5 105/3/5
f 112/3/5 106/3/5 111/3/5
f 113/3/5 108/3/5 107/3/5
f 114/3/5 108/3/5 113/3/5
f 115/3/5 110/3/5 109/3/5
f 116/3/5 110/3/5 115/3/5
f 117/3/6 118/3/6 123/3/6
f 123/3/6 118/3/6 124/3/6
f 119/3/6 120/3/6 125/3/6
f 125/3/6 120/3/6 126/3/6
f 121/3/6 122/3/6 127/3/6
f 127/3/6 122/3/6 128/3/6
f 129/2/6 130/2/6 133/2/6
f 133/2/6 130/2/6 134/2/6
f 131/2/6 132/2/6 135/2/6
f 135/2/6 132/2/6 136/2/6
