# Made in Blockbench 4.8.3
mtllib CurvedRoad.mtl

o cuboid
v 1 0.0625 1
v 1 0.0625 -1
v 1 0 1
v 1 0 -1
v -1 0.0625 1
v -1 0.0625 -1
v -1 0 1
v -1 0 -1
vt 0.5 0.3125
vt 0 0.3125
vt 0 0.25
vt 0.5 0.25
vt 0.5 0.3125
vt 0.5 0.375
vt 0 0.375
vt 0 0.3125
vt 0 0.5
vt 0.5 0.5
vt 0.5 1
vt 0 1
vt 1 0.5
vt 1 1
vt 0.5 1
vt 0.5 0.5
vt 0.5 0.375
vt 0.5 0.4375
vt 0 0.4375
vt 0 0.375
vt 0.5 0.5
vt 0 0.5
vt 0 0.4375
vt 0.5 0.4375
vn 1 0 0
vn -1 0 0
vn 0 1 0
vn 0 -1 0
vn 0 0 1
vn 0 0 -1
usemtl m_34c8de09-f93a-8709-34b5-826029876881
f 2/1/1 1/2/1 3/3/1 4/4/1
f 7/5/2 5/6/2 6/7/2 8/8/2
f 5/9/3 1/10/3 2/11/3 6/12/3
f 4/13/4 3/14/4 7/15/4 8/16/4
f 3/17/5 1/18/5 5/19/5 7/20/5
f 6/21/6 2/22/6 4/23/6 8/24/6